<svg xmlns="http://www.w3.org/2000/svg" viewBox="0 0 900 44" width="900" height="44" role="img" aria-label="">
<defs><g id="leaf"><path d="M0 -22 C 15 -12, 15 12, 0 26 C -15 12, -15 -12, 0 -22 Z"/><path d="M0 -20 L0 30 M0 -6 L8 -14 M0 4 L-9 -4 M0 12 L8 4" stroke="#0B3D1A" stroke-opacity=".45" stroke-width="1.2" fill="none" stroke-linecap="round"/></g><style>.v{stroke-dasharray:1000;animation:dr 7s ease-in-out infinite}@keyframes dr{0%{stroke-dashoffset:1000}50%,80%{stroke-dashoffset:0}100%{stroke-dashoffset:-1000}}.lf{animation:pop 7s ease-in-out infinite;transform-box:fill-box;transform-origin:center}@keyframes pop{0%,10%{transform:scale(0)}35%,80%{transform:scale(1)}100%{transform:scale(0)}}@media (prefers-reduced-motion:reduce){*{animation:none!important}}</style></defs>
<path class="v" d="M0,22.0 L10,23.763181947648977 L20,25.439650908226845 L30,26.946958424557895 L40,28.210975370405283 L50,29.16953760823965 L60,29.7755032109065 L70,29.99907089355282 L80,29.829245635726696 L90,29.274379414605455 L100,28.361760456184392 L110,27.136271204982606 L120,25.658181013086494 L130,24.0001821037069 L140,22.24381458005589 L150,20.475456296996118 L160,18.782074812890187 L170,17.24695033993261 L180,15.945580037536574 L190,14.941965074927339 L200,14.285463064569775 L210,14.008360663216575 L220,14.124285719643046 L230,14.62753705937169 L240,15.49336486745936 L250,16.679187880169422 L260,18.126687524250336 L270,19.764676014408593 L280,21.512597356432078 L290,23.284489077228145 L300,24.99320984456976 L310,26.5547250629325 L320,27.892239680551135 L330,28.939974956950447 L340,29.646403450168194 L350,29.976783127551 L360,29.914865972987055 L370,29.463697061563675 L380,28.645464803294523 L390,27.500409720904493 L400,26.084845427794264 L410,24.468389134150513 L420,22.730537884437993 L430,20.95675890632928 L440,19.23428634704372 L450,17.647831112885044 L460,16.27541480133608 L470,15.184532612219066 L480,14.428833945295136 L490,14.045483931946215 L500,14.053335660360716 L510,14.452002983876122 L520,15.221879511605907 L530,16.325102847394994 L540,17.70741665599652 L550,19.300838980373495 L560,21.027005582735978 L570,22.801023884372583 L580,24.53564796817373 L590,26.145569317935237 L600,27.55161227661645 L610,28.684627891631862 L620,29.4888946485302 L630,29.924858845558962 L640,29.971079837961778 L650,29.62528448522584 L660,28.904478943744156 L670,27.84411230694841 L680,26.496333224947996 L690,24.92742524282345 L700,23.214546987199302 L710,21.441937518163677 L720,19.696773466679478 L730,18.0648817027615 L740,16.626518384666554 L750,15.452421974736438 L760,14.600334333900662 L770,14.112160986816923 L780,14.011910215325093 L790,14.304512335246434 L800,14.97557722429347 L810,15.992102025826592 L820,17.30409422370738 L830,18.84703026570464 L840,20.545028820773883 L850,22.31458260995907 L860,24.068665280110544 L870,25.72101134507055 L880,27.190358707550217 L890,28.404445115196264 L900,29.30356200582102" stroke="#7CB342" stroke-opacity=".8" stroke-width="2.5" fill="none" stroke-linecap="round"/><g transform="translate(90,23.274379414605455)"><g class="lf" style="animation-delay:0.0s"><use href="#leaf" fill="#7CB342" transform="scale(.42) rotate(40)"/></g></g><g transform="translate(210,8.008360663216575)"><g class="lf" style="animation-delay:0.5s"><use href="#leaf" fill="#7CB342" transform="scale(.42) rotate(-40)"/></g></g><g transform="translate(330,22.939974956950447)"><g class="lf" style="animation-delay:1.0s"><use href="#leaf" fill="#7CB342" transform="scale(.42) rotate(40)"/></g></g><g transform="translate(450,11.647831112885044)"><g class="lf" style="animation-delay:1.5s"><use href="#leaf" fill="#7CB342" transform="scale(.42) rotate(-40)"/></g></g><g transform="translate(570,16.801023884372583)"><g class="lf" style="animation-delay:2.0s"><use href="#leaf" fill="#7CB342" transform="scale(.42) rotate(40)"/></g></g><g transform="translate(690,18.92742524282345)"><g class="lf" style="animation-delay:2.5s"><use href="#leaf" fill="#7CB342" transform="scale(.42) rotate(-40)"/></g></g><g transform="translate(810,9.992102025826592)"><g class="lf" style="animation-delay:3.0s"><use href="#leaf" fill="#7CB342" transform="scale(.42) rotate(40)"/></g></g>
</svg>